<svg xmlns="http://www.w3.org/2000/svg" width="720" height="720" viewBox="0 0 720 720">
  <!-- Hand-drawn travel doodles · light theme · keep opacity low: background texture only -->
  <g fill="none" stroke="#475569" stroke-width="2.5" stroke-linecap="round" stroke-linejoin="round" opacity="0.07">

    <!-- Bus -->
    <g transform="rotate(-3 110 100)">
      <rect x="50" y="70" width="120" height="60" rx="12"/>
      <line x1="50" y1="108" x2="170" y2="108"/>
      <line x1="88" y1="70" x2="88" y2="108"/>
      <line x1="126" y1="70" x2="126" y2="108"/>
      <circle cx="82" cy="134" r="9"/>
      <circle cx="140" cy="134" r="9"/>
    </g>

    <!-- Cloud -->
    <path d="M262 78 q8 -22 32 -17 q9 -16 29 -9 q21 -5 24 14 q14 6 4 16 q-45 6 -89 -4 z"/>

    <!-- Mountains with snow caps -->
    <path d="M420 152 L472 72 L502 114 L542 56 L596 152"/>
    <path d="M462 88 l10 -7 l8 8 l8 -6"/>
    <path d="M532 72 l10 -8 l8 9 l8 -6"/>

    <!-- Sun -->
    <circle cx="660" cy="62" r="15"/>
    <g>
      <line x1="660" y1="36" x2="660" y2="28"/>
      <line x1="660" y1="88" x2="660" y2="96"/>
      <line x1="634" y1="62" x2="626" y2="62"/>
      <line x1="686" y1="62" x2="694" y2="62"/>
      <line x1="642" y1="44" x2="636" y2="38"/>
      <line x1="678" y1="44" x2="684" y2="38"/>
      <line x1="642" y1="80" x2="636" y2="86"/>
      <line x1="678" y1="80" x2="684" y2="86"/>
    </g>

    <!-- Prayer flags -->
    <path d="M100 238 q80 34 162 2"/>
    <path d="M122 246 l16 3 l-8 18 z"/>
    <path d="M154 254 l16 2 l-8 17 z"/>
    <path d="M186 257 l16 0 l-8 17 z"/>
    <path d="M218 256 l16 -2 l-7 18 z"/>
    <path d="M248 250 l15 -4 l-6 18 z"/>

    <!-- Stupa (Boudhanath-style) -->
    <g transform="rotate(2 430 270)">
      <path d="M388 302 a42 42 0 0 1 84 0"/>
      <line x1="380" y1="302" x2="480" y2="302"/>
      <line x1="388" y1="312" x2="472" y2="312"/>
      <rect x="418" y="240" width="24" height="20"/>
      <circle cx="425" cy="249" r="1.6"/>
      <circle cx="435" cy="249" r="1.6"/>
      <path d="M414 240 L430 206 L446 240"/>
      <circle cx="430" cy="200" r="4"/>
    </g>

    <!-- Pagoda temple -->
    <g transform="rotate(-2 640 340)">
      <path d="M580 382 L640 350 L700 382"/>
      <path d="M596 346 L640 320 L684 346"/>
      <path d="M612 314 L640 294 L668 314"/>
      <line x1="640" y1="294" x2="640" y2="280"/>
      <line x1="608" y1="382" x2="608" y2="398"/>
      <line x1="672" y1="382" x2="672" y2="398"/>
      <line x1="594" y1="398" x2="686" y2="398"/>
    </g>

    <!-- Notebook + pencil -->
    <g transform="rotate(-6 90 485)">
      <rect x="55" y="440" width="72" height="92" rx="7"/>
      <circle cx="55" cy="458" r="3"/>
      <circle cx="55" cy="480" r="3"/>
      <circle cx="55" cy="502" r="3"/>
      <line x1="72" y1="466" x2="112" y2="466"/>
      <line x1="72" y1="486" x2="112" y2="486"/>
      <line x1="72" y1="506" x2="100" y2="506"/>
    </g>
    <g transform="rotate(32 150 520)">
      <line x1="138" y1="496" x2="138" y2="540"/>
      <path d="M138 540 l0 0 l-4 -8 l8 0 z" transform="rotate(180 138 544)"/>
      <line x1="134" y1="496" x2="142" y2="496"/>
    </g>

    <!-- Park bench -->
    <g transform="rotate(2 320 480)">
      <line x1="278" y1="446" x2="362" y2="446"/>
      <line x1="278" y1="458" x2="362" y2="458"/>
      <line x1="276" y1="478" x2="364" y2="478"/>
      <line x1="284" y1="446" x2="284" y2="510"/>
      <line x1="356" y1="446" x2="356" y2="510"/>
      <line x1="284" y1="478" x2="276" y2="510"/>
      <line x1="356" y1="478" x2="364" y2="510"/>
    </g>

    <!-- Compass -->
    <g transform="rotate(8 550 520)">
      <circle cx="550" cy="520" r="21"/>
      <path d="M550 504 L557 520 L550 536 L543 520 z"/>
      <line x1="550" y1="496" x2="550" y2="492"/>
    </g>

    <!-- Bus stop sign -->
    <g transform="rotate(-2 150 640)">
      <line x1="150" y1="618" x2="150" y2="672"/>
      <circle cx="150" cy="604" r="13"/>
      <rect x="143" y="599" width="14" height="9" rx="2"/>
      <line x1="136" y1="672" x2="164" y2="672"/>
    </g>

    <!-- Winding road -->
    <path d="M376 668 q32 -26 64 0 t64 0" stroke-dasharray="7 9"/>

    <!-- Tent under the hills -->
    <g transform="rotate(2 650 642)">
      <path d="M614 666 L650 614 L686 666 z"/>
      <line x1="650" y1="614" x2="650" y2="666"/>
      <line x1="602" y1="666" x2="698" y2="666"/>
    </g>
  </g>
</svg>
