<?xml version="1.0" standalone="no"?>
<svg width="512" height="512" viewBox="0 0 64 64" version="1.1" xmlns="http://www.w3.org/2000/svg" xmlns:xlink="http://www.w3.org/1999/xlink" xmlns:sketch="http://www.bohemiancoding.com/sketch/ns">
    
    <title>Steering-wheel</title>
    <desc>Created with Sketch.</desc>
    <defs>

</defs>
    <g id="Page-1" stroke="none" stroke-width="1" fill="none" fill-rule="evenodd" sketch:type="MSPage">
        <g id="Steering-wheel" sketch:type="MSLayerGroup" transform="translate(1.000000, 1.000000)" stroke="#6B6C6E" stroke-width="2">
            <circle id="Oval" sketch:type="MSShapeGroup" cx="31" cy="31" r="31">

</circle>
            <circle id="Oval" sketch:type="MSShapeGroup" cx="31" cy="31" r="27">

</circle>
            <path d="M5,38.4 C6.3,38.1 7.6,38 9,38 C18.9,38 27,45.4 27,54.5 C27,55.6 26.9,56.6 26.7,57.6" id="Shape" sketch:type="MSShapeGroup">

</path>
            <path d="M57.9,28.6 C51,23.9 41.5,21 31,21 C20.5,21 11,23.9 4.1,28.6" id="Shape" sketch:type="MSShapeGroup">

</path>
            <path d="M35.3,57.6 C35.1,56.6 35,55.5 35,54.5 C35,45.4 43.1,38 53,38 C54.4,38 55.7,38.1 57,38.4" id="Shape" sketch:type="MSShapeGroup">

</path>
            <circle id="Oval" sketch:type="MSShapeGroup" cx="31" cy="31" r="3">

</circle>
        </g>
    </g>
</svg>